<?xml version="1.0" standalone="no"?>
<!DOCTYPE svg PUBLIC "-//W3C//DTD SVG 20010904//EN"
 "http://www.w3.org/TR/2001/REC-SVG-20010904/DTD/svg10.dtd">
<svg version="1.0" xmlns="http://www.w3.org/2000/svg"
 width="2400.000000pt" height="2400.000000pt" viewBox="0 0 2400.000000 2400.000000"
 preserveAspectRatio="xMidYMid meet">
<metadata>
Created by potrace 1.11, written by Peter Selinger 2001-2013
</metadata>
<g transform="translate(0.000000,2400.000000) scale(0.100000,-0.100000)"
fill="#000000" stroke="none">
<path d="M11588 22795 c-2 -1 -66 -6 -143 -9 -77 -4 -156 -9 -175 -11 -19 -1
-78 -6 -130 -9 -52 -4 -108 -8 -125 -10 -16 -2 -61 -7 -100 -10 -108 -11 -201
-21 -265 -31 -14 -2 -47 -6 -75 -10 -104 -12 -277 -38 -380 -56 -33 -6 -70
-13 -82 -15 -13 -2 -35 -6 -50 -9 -16 -3 -43 -8 -62 -11 -18 -3 -43 -8 -55
-10 -11 -3 -32 -7 -46 -10 -14 -2 -56 -11 -95 -19 -38 -8 -79 -17 -90 -19 -47
-10 -258 -59 -350 -83 -55 -13 -107 -26 -115 -28 -103 -21 -753 -222 -850
-262 -8 -3 -17 -7 -20 -8 -32 -8 -375 -138 -425 -160 -16 -7 -85 -36 -151 -64
-67 -27 -152 -64 -188 -81 -37 -16 -68 -30 -70 -30 -2 0 -59 -26 -127 -59 -68
-32 -131 -61 -139 -65 -18 -7 -346 -177 -440 -228 -118 -63 -354 -199 -454
-260 -28 -18 -61 -38 -72 -45 -71 -43 -232 -146 -299 -192 -171 -116 -301
-206 -326 -225 -15 -12 -39 -30 -55 -41 -55 -40 -279 -209 -284 -215 -3 -3
-34 -28 -70 -55 -56 -43 -294 -240 -326 -270 -6 -5 -33 -29 -60 -51 -27 -23
-63 -55 -80 -70 -16 -16 -73 -67 -125 -114 -121 -109 -529 -517 -639 -639 -47
-52 -101 -112 -120 -133 -19 -21 -53 -59 -75 -84 -22 -26 -50 -58 -63 -72 -12
-14 -33 -39 -45 -55 -12 -16 -27 -34 -34 -41 -6 -7 -35 -42 -64 -77 -29 -35
-57 -65 -61 -67 -4 -2 -8 -8 -8 -13 0 -9 -21 -38 -58 -75 -12 -13 -22 -27 -22
-33 0 -5 -4 -11 -8 -13 -12 -4 -178 -227 -309 -413 -62 -88 -116 -164 -120
-170 -5 -5 -24 -35 -43 -65 -19 -30 -38 -59 -43 -65 -4 -5 -25 -37 -46 -70
-21 -33 -63 -100 -94 -148 -32 -48 -57 -92 -57 -97 0 -6 -4 -10 -9 -10 -5 0
-11 -8 -14 -17 -4 -10 -18 -36 -31 -58 -14 -22 -31 -49 -36 -60 -6 -11 -16
-29 -23 -40 -75 -124 -243 -435 -342 -635 -49 -97 -135 -280 -134 -282 0 -2
-11 -25 -24 -53 -37 -74 -184 -420 -188 -443 0 -4 -6 -16 -12 -27 -6 -11 -12
-22 -12 -25 0 -3 -10 -30 -22 -60 -40 -98 -46 -115 -49 -128 -1 -8 -6 -21 -10
-30 -4 -9 -8 -19 -9 -22 -1 -3 -9 -22 -18 -44 -9 -21 -17 -47 -17 -57 0 -10
-4 -20 -9 -24 -5 -3 -13 -20 -16 -38 -4 -17 -13 -45 -20 -62 -8 -16 -38 -109
-68 -205 -66 -209 -71 -225 -67 -225 2 0 -2 -11 -9 -24 -7 -13 -14 -33 -16
-45 -2 -11 -28 -111 -58 -221 -52 -190 -83 -312 -93 -364 -3 -12 -12 -53 -20
-90 -9 -36 -18 -76 -20 -88 -2 -13 -6 -33 -8 -45 -35 -173 -57 -288 -60 -308
-4 -25 -33 -204 -41 -249 -2 -13 -7 -45 -11 -70 -3 -25 -8 -57 -10 -71 -7 -43
-23 -172 -30 -235 -3 -33 -8 -67 -9 -76 -2 -8 -6 -55 -10 -105 -4 -49 -9 -98
-11 -109 -2 -11 -6 -60 -10 -110 -3 -49 -7 -106 -9 -125 -27 -277 -27 -1114 0
-1475 2 -33 7 -98 10 -145 4 -47 8 -98 10 -115 2 -16 7 -61 10 -100 3 -38 8
-83 10 -100 3 -16 7 -52 10 -80 7 -56 6 -51 35 -260 12 -82 23 -161 26 -175 3
-14 7 -38 9 -55 17 -114 59 -330 113 -585 31 -142 117 -479 157 -615 20 -66
38 -130 40 -142 3 -11 39 -124 81 -250 41 -125 77 -232 78 -238 2 -5 8 -23 15
-40 7 -16 32 -84 56 -150 24 -66 74 -192 110 -280 36 -88 67 -164 69 -170 2
-5 12 -30 23 -55 11 -25 39 -85 61 -135 112 -254 277 -581 417 -830 132 -236
186 -326 202 -343 7 -7 13 -17 13 -22 0 -8 38 -71 58 -95 4 -5 11 -17 14 -25
6 -16 110 -177 125 -195 5 -5 12 -17 16 -25 4 -8 43 -67 87 -130 44 -63 92
-133 107 -155 14 -22 29 -42 32 -45 4 -3 39 -51 79 -107 40 -55 94 -128 120
-161 26 -33 65 -83 87 -112 22 -29 45 -57 50 -64 6 -6 26 -31 46 -56 20 -25
46 -56 58 -70 11 -14 24 -29 28 -35 13 -16 108 -130 113 -135 3 -3 38 -43 79
-90 255 -293 742 -782 961 -965 25 -21 54 -47 65 -59 11 -12 32 -30 46 -41 15
-11 55 -44 90 -74 35 -29 84 -70 108 -90 24 -20 52 -43 62 -52 10 -8 30 -24
44 -35 15 -10 42 -32 62 -48 19 -17 103 -81 186 -143 84 -63 159 -120 167
-127 9 -7 22 -15 30 -19 8 -4 33 -21 55 -37 46 -35 257 -180 283 -195 9 -5 19
-12 22 -16 3 -3 23 -16 45 -29 22 -13 45 -28 50 -32 6 -5 44 -29 85 -55 41
-25 87 -54 102 -64 15 -11 32 -19 37 -19 5 0 16 -6 23 -13 12 -11 88 -58 193
-117 148 -85 268 -151 315 -175 30 -15 57 -30 60 -34 3 -3 11 -7 18 -9 7 -1
30 -13 51 -27 21 -13 41 -22 43 -19 3 2 11 -2 18 -11 7 -8 16 -15 20 -15 5 0
91 -40 192 -89 265 -128 831 -371 863 -371 4 0 21 -6 38 -14 46 -20 171 -66
181 -66 4 0 22 -6 39 -14 29 -13 339 -116 362 -120 6 -1 16 -5 23 -9 6 -5 12
-6 12 -3 0 3 17 -1 38 -9 40 -15 252 -76 421 -120 103 -27 123 -31 170 -41 14
-3 28 -7 31 -9 4 -2 21 -7 38 -10 18 -3 62 -12 99 -21 38 -9 75 -17 83 -19 8
-2 26 -6 40 -9 14 -3 36 -8 50 -10 14 -3 81 -16 150 -30 69 -13 139 -26 155
-29 17 -3 71 -12 120 -21 95 -16 163 -26 205 -31 14 -2 39 -5 55 -8 31 -6 95
-15 155 -22 19 -2 58 -7 85 -10 95 -12 110 -13 185 -20 41 -4 93 -9 115 -11
22 -2 72 -6 110 -9 39 -3 90 -7 115 -10 277 -27 1220 -27 1480 0 19 2 78 6
130 10 52 3 109 8 125 10 17 2 65 7 108 10 43 4 88 8 100 10 28 5 96 12 172
20 33 4 67 8 75 10 8 2 38 7 65 10 28 3 61 8 75 10 14 3 39 7 55 9 17 3 75 12
130 22 55 9 109 17 120 19 11 2 58 10 105 20 47 9 96 18 110 21 14 2 57 11 95
19 39 8 79 17 91 19 43 8 411 97 484 117 101 27 95 25 180 49 153 43 597 184
650 207 8 3 20 7 25 8 22 5 342 128 367 141 15 8 31 15 35 15 18 3 241 95 356
148 37 17 69 31 71 31 2 0 59 26 127 59 68 32 131 61 139 65 51 21 488 252
611 323 48 27 93 53 100 57 8 3 28 15 44 26 17 11 37 23 45 27 8 4 45 26 83
50 37 24 69 43 71 43 3 0 31 17 63 38 32 21 87 57 123 80 36 22 70 45 75 49 6
5 35 24 65 43 30 19 57 37 60 40 3 3 48 34 100 69 93 63 480 348 490 361 3 3
23 19 45 35 22 17 42 32 45 35 3 3 28 23 55 45 72 58 76 61 236 198 81 68 155
133 166 143 11 11 62 57 114 104 123 111 531 519 639 639 47 52 98 109 114
125 15 17 49 56 75 85 25 30 57 68 71 83 14 15 30 34 35 41 54 67 161 193 167
195 5 2 8 8 8 13 0 9 21 38 58 75 12 13 22 27 22 33 0 5 4 11 8 13 7 2 134
168 217 282 11 15 36 49 55 75 19 27 41 57 48 67 6 10 46 67 87 127 41 59 80
117 86 130 7 12 15 24 18 27 10 9 51 69 51 75 0 4 13 25 28 48 65 95 122 187
122 197 0 5 5 10 10 10 6 0 10 5 10 10 0 6 23 47 50 91 28 44 50 83 50 85 0 2
18 34 40 70 22 36 40 68 40 71 0 3 9 18 21 34 11 16 17 29 13 29 -4 0 -1 8 7
18 35 43 353 669 348 684 0 2 10 26 24 53 14 28 39 84 57 125 18 41 41 93 51
116 10 22 27 65 39 95 11 30 25 63 30 74 13 28 61 152 105 270 20 55 45 123
55 150 68 180 247 756 275 885 2 8 17 69 34 135 40 160 62 254 67 290 3 17 9
44 14 60 5 17 12 48 15 70 4 22 10 56 15 75 5 19 12 53 15 75 4 22 10 58 15
80 5 22 16 83 24 135 9 52 18 106 21 120 9 48 54 375 60 440 3 36 8 72 10 80
2 8 7 51 10 95 4 44 9 94 11 110 1 17 6 71 9 120 3 50 8 110 11 135 25 275 25
1307 -1 1472 -2 13 -6 68 -10 123 -4 55 -8 111 -10 125 -1 14 -6 61 -9 105 -4
44 -9 89 -11 100 -2 11 -7 45 -10 76 -3 31 -7 65 -9 75 -2 11 -7 45 -11 78 -3
32 -8 68 -10 80 -2 11 -6 43 -10 69 -4 27 -8 56 -10 65 -1 10 -8 53 -15 97 -7
44 -14 89 -16 100 -2 11 -9 47 -15 80 -17 96 -58 305 -73 370 -8 33 -24 105
-36 160 -28 128 -128 502 -178 670 -41 134 -166 514 -181 550 -5 11 -15 38
-23 60 -9 22 -57 144 -107 270 -50 127 -93 235 -95 240 -4 12 -42 100 -61 140
-8 17 -33 73 -57 125 -73 161 -255 525 -335 669 -42 75 -83 150 -91 166 -9 17
-31 54 -49 82 -18 29 -38 63 -44 75 -11 26 -21 42 -70 118 -19 30 -38 62 -42
70 -4 8 -34 56 -67 105 -33 50 -63 97 -67 105 -4 8 -11 20 -15 25 -5 6 -59 84
-120 175 -61 91 -150 217 -197 280 -47 63 -88 119 -90 125 -2 5 -8 14 -13 20
-4 5 -18 21 -29 35 -12 14 -33 41 -47 60 -15 19 -38 49 -52 66 -14 17 -38 48
-55 69 -67 86 -183 225 -275 330 -25 28 -60 69 -79 91 -148 172 -602 634 -770
784 -46 41 -93 84 -105 95 -21 19 -117 103 -200 175 -23 20 -66 56 -96 80 -30
25 -64 53 -75 62 -67 57 -72 60 -205 164 -122 95 -124 97 -245 185 -60 45
-137 99 -170 122 -33 22 -66 47 -73 54 -7 7 -17 13 -22 13 -5 0 -15 6 -22 13
-24 22 -108 77 -118 77 -6 0 -10 5 -10 10 0 6 -7 10 -15 10 -8 0 -15 3 -15 8
0 4 -17 16 -37 27 -20 11 -41 25 -47 30 -6 6 -42 30 -81 53 -90 56 -98 60
-164 102 -84 52 -94 58 -118 69 -12 6 -51 28 -86 51 -35 22 -66 40 -69 40 -3
0 -43 22 -89 49 -79 45 -418 224 -429 227 -3 0 -76 35 -163 77 -198 97 -494
225 -702 306 -88 34 -169 66 -180 71 -63 28 -389 137 -705 236 -50 15 -295 83
-322 89 -10 2 -59 15 -110 28 -92 24 -213 53 -348 82 -8 2 -26 6 -40 9 -14 3
-36 8 -50 10 -14 3 -71 14 -126 25 -149 30 -420 76 -504 86 -14 2 -61 8 -105
15 -44 6 -98 13 -120 16 -22 3 -51 7 -65 9 -14 2 -52 6 -85 10 -33 3 -76 8
-95 10 -19 2 -69 7 -110 10 -41 3 -88 7 -105 9 -16 2 -86 7 -155 12 -69 4
-143 9 -165 11 -47 5 -972 12 -977 8z"/>
</g>
</svg>
