<?xml version="1.0" standalone="no"?>
<!DOCTYPE svg PUBLIC "-//W3C//DTD SVG 20010904//EN"
 "http://www.w3.org/TR/2001/REC-SVG-20010904/DTD/svg10.dtd">
<svg version="1.0" xmlns="http://www.w3.org/2000/svg"
 width="512.000000pt" height="512.000000pt" viewBox="0 0 512.000000 512.000000"
 preserveAspectRatio="xMidYMid meet">
<metadata>
Created by potrace 1.11, written by Peter Selinger 2001-2013
</metadata>
<g transform="translate(0.000000,512.000000) scale(0.100000,-0.100000)"
fill="#000000" stroke="none">
<path d="M2468 4865 c-2 -2 -43 -6 -93 -9 -265 -20 -548 -95 -794 -212 -62
-30 -115 -54 -117 -54 -8 0 -235 -147 -279 -181 -131 -102 -161 -128 -267
-234 -76 -76 -205 -231 -266 -323 -51 -75 -141 -233 -172 -302 -14 -30 -28
-56 -32 -58 -5 -2 -8 -14 -8 -26 0 -12 -4 -26 -9 -31 -7 -9 -63 -156 -67 -177
-1 -5 -2 -9 -4 -10 -1 -2 -3 -10 -5 -18 -3 -8 -12 -42 -20 -75 -9 -33 -18 -70
-20 -82 -2 -11 -6 -31 -10 -42 -3 -12 -8 -34 -10 -49 -4 -29 -12 -81 -20 -122
-17 -93 -23 -340 -12 -480 10 -119 32 -255 63 -383 2 -9 6 -26 9 -38 15 -70
103 -302 154 -405 59 -122 175 -316 192 -322 5 -2 9 -8 9 -14 0 -16 135 -177
233 -277 51 -51 133 -126 182 -166 85 -69 249 -185 260 -185 3 0 22 -11 43
-24 20 -12 39 -23 42 -22 3 0 19 -8 35 -20 50 -34 281 -133 351 -150 16 -4 34
-9 39 -13 6 -3 15 -6 20 -7 6 -1 35 -9 66 -18 31 -9 67 -19 80 -21 13 -3 47
-9 74 -15 47 -9 67 -12 140 -24 162 -25 451 -25 615 1 14 2 43 6 65 9 22 3 47
8 55 11 8 3 27 7 41 9 57 5 244 61 389 116 14 5 25 9 25 8 0 -2 118 55 165 79
97 50 284 166 316 196 6 5 22 17 34 25 27 19 48 36 129 108 113 100 186 177
282 298 29 38 57 71 61 72 5 2 8 8 8 13 0 5 15 30 34 56 52 74 147 248 194
355 79 180 156 447 168 582 2 26 6 51 8 55 15 23 24 389 12 486 -22 187 -22
185 -51 320 -2 11 -13 54 -25 95 -11 41 -22 82 -25 90 -8 31 -43 128 -69 188
-155 366 -386 670 -701 921 -54 43 -144 107 -199 141 -98 62 -201 117 -201
109 0 -2 -13 5 -30 17 -43 29 -315 132 -397 150 -5 1 -9 2 -10 4 -2 1 -12 3
-23 5 -11 2 -63 13 -115 24 -90 18 -114 22 -255 37 -58 6 -282 13 -287 9z"/>
</g>
</svg>
